HIERARCHY
ROOT Hips
{
	OFFSET -0.179506 -22.333345 2.821913
	CHANNELS 6 Xposition Yposition Zposition Zrotation Yrotation Xrotation 
	JOINT LeftUpLeg
	{
		OFFSET 6.951974 -9.140623 -0.681533
		CHANNELS 3 Zrotation Yrotation Xrotation
		JOINT LeftLeg
		{
			OFFSET 3.427654 -37.519855 -0.449580
			CHANNELS 3 Zrotation Yrotation Xrotation
			JOINT LeftFoot
			{
				OFFSET -1.359570 -39.796059 -4.369333
				CHANNELS 3 Zrotation Yrotation Xrotation
				JOINT LeftToe
				{
					OFFSET 2.635814 -5.579078 11.928840
					CHANNELS 3 Zrotation Yrotation Xrotation
					End Site
					{
						OFFSET 0.000000 0.000000 0.000000
					}
				}
			}
		}
	}
	JOINT RightUpLeg
	{
		OFFSET -6.767048 -9.052170 -0.431982
		CHANNELS 3 Zrotation Yrotation Xrotation
		JOINT RightLeg
		{
			OFFSET -3.829005 -38.256897 -0.885003
			CHANNELS 3 Zrotation Yrotation Xrotation
			JOINT RightFoot
			{
				OFFSET 1.577377 -39.841461 -4.231180
				CHANNELS 3 Zrotation Yrotation Xrotation
				JOINT RightToe
				{
					OFFSET -2.537174 -4.814398 12.334795
					CHANNELS 3 Zrotation Yrotation Xrotation
					End Site
					{
						OFFSET 0.000000 0.000000 0.000000
					}
				}
			}
		}
	}
	JOINT Spine
	{
		OFFSET -0.253288 10.896323 -2.669631
		CHANNELS 3 Zrotation Yrotation Xrotation
		JOINT Spine1
		{
			OFFSET 0.548704 13.518043 0.109247
			CHANNELS 3 Zrotation Yrotation Xrotation
			JOINT Spine2
			{
				OFFSET 0.145701 5.292222 2.542457
				CHANNELS 3 Zrotation Yrotation Xrotation
				JOINT Neck
				{
					OFFSET -0.277840 21.387037 -4.285703
					CHANNELS 3 Zrotation Yrotation Xrotation
					JOINT Head
					{
						OFFSET 0.515184 6.496960 5.134897
						CHANNELS 3 Zrotation Yrotation Xrotation
						End Site
						{
							OFFSET 0.000000 0.000000 0.000000
						}
					}
				}
				JOINT LeftShoulder
				{
					OFFSET 7.884473 12.174932 -3.408961
					CHANNELS 3 Zrotation Yrotation Xrotation
					JOINT LeftArm
					{
						OFFSET 9.097692 3.046888 -0.886815
						CHANNELS 3 Zrotation Yrotation Xrotation
						JOINT LeftForeArm
						{
							OFFSET 25.961220 -1.277207 -2.745643
							CHANNELS 3 Zrotation Yrotation Xrotation
							JOINT LeftHand
							{
								OFFSET 24.923361 0.898606 -0.117091
								CHANNELS 3 Zrotation Yrotation Xrotation
								End Site
								{
									OFFSET 0.000000 0.000000 0.000000
								}
							}
						}
					}
				}
				JOINT RightShoulder
				{
					OFFSET -8.175920 11.883285 -3.861528
					CHANNELS 3 Zrotation Yrotation Xrotation
					JOINT RightArm
					{
						OFFSET -9.601238 3.255117 -0.914307
						CHANNELS 3 Zrotation Yrotation Xrotation
						JOINT RightForeArm
						{
							OFFSET -25.374195 -1.332924 -2.140099
							CHANNELS 3 Zrotation Yrotation Xrotation
							JOINT RightHand
							{
								OFFSET -25.529810 0.777228 -0.555919
								CHANNELS 3 Zrotation Yrotation Xrotation
								End Site
								{
									OFFSET 0.000000 0.000000 0.000000
								}
							}
						}
					}
				}
			}
		}
	}
}
MOTION
Frames: 10
Frame Time: 0.033333
349.789551 -349.288849 85.946442 -143.084352 2.683542 90.602292 5.805295 -1.577342 -25.504306 -8.314881 17.252897 35.967825 9.822151 12.329261 -25.918254 nan nan nan -7.081719 -12.855885 6.805357 1.117703 -15.041371 40.006785 5.497129 -7.484907 -15.893280 nan nan nan -2.811862 12.131121 13.272340 2.374309 2.291024 -9.586092 -0.421309 4.458943 1.322746 4.427083 0.374574 4.692325 -0.806223 -8.093678 34.079443 -21.438145 1.444705 -1.236174 -54.335035 -12.673068 17.968276 -4.675062 -73.781516 10.370243 5.627767 -13.490392 -41.631012 23.669657 -1.125943 -1.852740 51.997381 3.994240 17.415837 -62.856696 69.522594 -48.231910 6.441742 12.179602 -17.587605 
349.033508 -348.867218 86.213699 -142.597032 2.609670 91.113775 5.197868 -1.595549 -25.092413 -8.336052 16.878871 35.196613 10.192267 12.456825 -26.018219 nan nan nan -6.152799 -12.541814 3.976218 0.970188 -15.808117 42.688627 5.401154 -7.641446 -16.097918 nan nan nan -2.927608 11.525627 13.131672 2.443278 2.449654 -9.839231 -0.436117 4.235660 1.317487 4.498094 0.331539 4.369519 -1.224423 -8.184228 34.059626 -21.383171 1.625960 -1.296241 -54.222655 -12.657669 18.088489 -4.234686 -74.004776 10.130817 5.863693 -13.566091 -40.932935 23.681477 -1.214562 -2.043999 51.872022 4.123254 17.663906 -62.652462 69.605522 -47.983346 6.385434 12.422327 -17.579469 
348.239319 -348.386200 86.518593 -142.233572 2.569785 91.560658 4.621968 -1.701814 -24.469206 -8.284819 16.464111 34.225694 10.445128 12.570418 -25.828828 nan nan nan -5.270747 -12.233997 1.561890 0.888052 -16.575545 44.426666 5.377503 -7.782721 -15.823405 nan nan nan -3.037848 11.023590 12.913985 2.523257 2.630456 -9.954118 -0.413436 4.021849 1.301014 4.530731 0.635830 4.288215 -1.639188 -7.868399 34.077655 -21.557961 1.816964 -1.383148 -53.940857 -12.675645 18.173897 -4.046667 -74.017220 9.941889 4.938154 -13.873095 -40.221017 23.923227 -1.378364 -2.216858 51.540446 4.303478 17.955079 -62.763999 69.716160 -48.155452 7.199669 12.695716 -17.701227 
347.427429 -347.998230 86.663139 -142.371399 1.952630 92.727466 3.830720 -2.521202 -24.549923 -8.036218 17.270988 32.879461 10.576781 12.664927 -24.921396 nan nan nan -3.917677 -12.884616 7.347824 1.297563 -16.156137 41.656586 4.942242 -8.045752 -15.744479 nan nan nan -3.703603 11.770120 11.272200 2.597164 1.854489 -9.676313 -0.419956 3.954902 1.282754 4.442592 0.405568 4.553872 -1.404269 -7.995802 34.293126 -21.573149 1.328245 -1.116443 -54.004008 -12.379641 18.155975 -2.049157 -73.974522 8.075375 4.757096 -14.117681 -40.307880 24.002647 -1.006799 -2.077913 51.376486 4.173715 17.877949 -63.340986 69.692952 -48.352937 6.995778 13.195736 -18.058452 
346.581116 -347.389313 86.923378 -142.234519 2.047706 93.094585 3.549602 -2.651364 -23.656517 -7.975601 17.000607 31.708781 10.462170 12.654813 -24.675317 nan nan nan -3.853945 -12.819458 8.549271 1.466972 -15.689908 40.188133 5.064092 -7.960974 -15.284263 nan nan nan -3.636873 11.715919 10.787087 2.695011 1.723901 -9.469991 -0.344846 3.872689 1.375573 4.398630 0.628868 4.670446 -1.561381 -7.453272 34.012071 -21.617805 1.488739 -1.252165 -53.957655 -12.414878 18.209995 -2.751089 -73.991058 8.707199 4.619901 -14.381670 -40.405782 23.951974 -1.244761 -2.294777 51.143507 4.248695 18.150561 -63.942084 70.186086 -49.030084 6.939395 13.374017 -18.129528 
345.698181 -346.781006 87.224854 -142.096271 2.021792 93.014015 2.953175 -2.884377 -22.231835 -7.898619 16.377919 30.479859 10.468432 12.726256 -24.470068 nan nan nan -3.305912 -12.816768 9.668725 1.360767 -15.822547 39.122837 4.980130 -8.151113 -15.096052 nan nan nan -3.613148 11.677442 10.620030 2.654300 1.523493 -9.352214 -0.340029 3.870887 1.349906 4.474587 0.518055 5.131696 -1.182668 -7.559666 33.736921 -21.179539 1.219038 -0.980370 -54.467854 -12.310113 18.013175 -1.900925 -73.734180 8.180617 3.864917 -14.426145 -40.358647 23.368559 -1.232476 -2.206725 52.388184 3.645096 17.931159 -64.242089 69.749622 -48.733226 7.483483 13.062223 -18.407046 
344.832092 -346.184204 87.567947 -142.124190 2.128020 92.980054 2.606862 -2.774873 -20.733912 -7.976414 16.093305 28.980436 10.404908 12.694294 -24.240333 nan nan nan -3.756377 -12.981252 11.257844 1.442233 -15.776382 37.803350 5.084389 -8.266072 -14.447757 nan nan nan -3.385714 11.730681 10.155873 2.694138 1.449834 -8.820683 -0.274380 3.868366 1.205245 4.352526 0.259241 5.848076 -1.064172 -7.272327 33.676136 -21.732756 0.675891 -0.601560 -54.170186 -12.215333 17.872119 0.170022 -73.565718 5.818717 4.507638 -14.407137 -40.033402 23.766820 -0.781506 -1.903904 51.829597 3.455821 17.732374 -65.098030 69.550040 -49.874271 6.709216 13.223693 -17.954410 
342.694458 -344.537811 88.102249 -136.608305 1.023737 85.802211 -1.837631 -1.783369 -10.077305 -7.861674 7.597287 26.864254 11.390305 14.985242 -24.744595 nan nan nan 4.416543 -2.538617 -26.689577 -0.597752 -21.103643 61.169232 5.387057 -7.623168 -12.696935 nan nan nan -4.162785 4.636804 18.627799 2.260355 4.534015 -9.647784 -0.166852 2.422089 1.663489 5.237503 1.462021 5.882258 -1.997250 -8.080682 32.510476 -20.519934 1.140970 -0.902779 -54.644400 -12.163174 19.134045 4.083501 -73.772588 -0.447536 3.810303 -14.246887 -37.942175 22.832200 -0.560373 -2.780706 54.165086 3.295354 19.525790 -64.200264 69.027028 -50.508342 8.599405 13.346343 -21.277776 
342.067993 -344.179230 88.224991 -133.985322 1.609421 88.500523 -1.592292 -4.195210 -12.584395 -8.444238 4.881459 26.807472 12.048048 15.715843 -24.372146 nan nan nan -1.281635 6.351372 -25.606658 2.198207 -2.161381 73.825005 5.350891 -5.081616 -13.151504 nan nan nan -4.200642 2.983843 15.841282 3.744393 4.431721 -9.711093 -1.030154 1.933276 1.606105 5.985142 0.790334 5.475339 -3.375515 -8.174316 34.112962 -21.529055 1.267508 -0.194606 -53.685950 -12.798976 20.171311 6.607496 -73.277303 -2.845203 3.436751 -14.138359 -39.549794 23.610649 -1.707671 -3.917636 53.479899 2.414484 22.369820 -64.725382 68.422030 -51.772245 10.315867 12.850157 -26.337676 
341.085938 -343.562225 88.453079 -133.598994 1.614314 88.280816 -2.157259 -4.050262 -10.754323 -8.160397 3.959729 25.148500 11.309235 15.711490 -24.445976 nan nan nan -1.413587 7.524991 -25.587060 2.013983 -1.067514 72.256461 7.676680 -4.256393 -13.311925 nan nan nan -4.156753 2.610830 16.300820 3.711411 4.491567 -10.057383 -0.915504 1.847470 1.512530 5.981621 0.725085 5.447202 -3.455547 -8.306815 34.301533 -21.614824 1.276074 -0.169143 -53.620798 -12.643315 20.435677 6.506282 -73.039079 -3.467292 3.852889 -14.775455 -39.346056 23.535731 -1.854599 -4.561562 53.657178 1.820410 22.988197 -64.730752 68.669031 -52.792760 9.797534 13.146116 -27.557155 
